# xmcd
#
# Track frame offsets: 
#        150
#        17602
#        37637
#        59317
#        82321
#        103217
#        122086
#        145232
#        165052
#        184002
#        205293
#        228307
#        250270
#
# Disc length: 3599 seconds
#
# Revision: 1
# Processed by: cddbd v1.5.2PL0 Copyright (c) Steve Scherf et al.
# Submitted via: ExactAudioCopy v1.0b3
#
DISCID=a50e0d0d
DTITLE=丁咚 - 释放
DYEAR=2007
DGENRE=Pop
TTITLE0=忘了怎么哭
TTITLE1=你的选择
TTITLE2=当我想你的时候
TTITLE3=那一刻
TTITLE4=恋上一个人
TTITLE5=放开手让你走
TTITLE6=难道爱一个人有错吗
TTITLE7=白狐
TTITLE8=我想我是海
TTITLE9=我在你眼里到底算什么
TTITLE10=那一天
TTITLE11=为什么你背着我爱别人
TTITLE12=这辈子我们还能在一起吗
EXTD=
EXTT0=
EXTT1=
EXTT2=
EXTT3=
EXTT4=
EXTT5=
EXTT6=
EXTT7=
EXTT8=
EXTT9=
EXTT10=
EXTT11=
EXTT12=
PLAYORDER=
